<?xml version="1.0" encoding="utf-8"?>
<svg viewBox="66.995 38.118 24.564 37.708" xmlns="http://www.w3.org/2000/svg">
  <path d="M 91.213 42.22 C 90.888 41.724 90.415 41.71 89.875 41.693 C 89.814 41.691 89.752 41.69 89.689 41.687 C 89.641 41.685 89.588 41.686 89.533 41.687 C 89.314 41.69 89.058 41.694 88.929 41.51 C 88.78 41.297 88.794 40.885 88.805 40.544 C 88.809 40.437 88.813 40.336 88.811 40.252 C 88.79 39.461 88.746 38.622 88.441 38.341 C 88.21 38.13 87.522 38.16 86.887 38.186 C 86.681 38.195 86.481 38.204 86.304 38.204 L 72.791 38.204 C 72.519 38.204 72.234 38.182 71.954 38.16 C 71.408 38.117 70.881 38.076 70.506 38.204 C 69.963 38.389 69.926 39.365 69.892 40.283 L 69.89 40.333 C 69.861 41.091 69.673 41.676 69.05 41.617 C 68.326 41.55 67.605 41.528 67.277 42.184 C 66.89 42.96 66.97 43.772 67.113 45.226 C 67.133 45.434 67.155 45.655 67.177 45.89 L 91.422 45.89 C 91.436 45.718 91.45 45.548 91.465 45.381 C 91.578 44.072 91.677 42.932 91.213 42.22 Z" fill="#8047F8"/>
  <path fill-rule="evenodd" clip-rule="evenodd" d="M 69.065 47.333 C 69.444 52.458 69.818 57.588 70.193 62.719 L 70.193 62.722 C 70.396 65.508 70.6 68.294 70.804 71.079 L 71.577 71.079 C 71.63 71.515 71.69 72.053 71.754 72.62 C 71.883 73.772 72.026 75.044 72.146 75.826 L 72.231 75.826 C 73.019 75.538 78.466 73.21 78.469 63.94 C 78.468 63.913 78.469 63.887 78.471 63.861 L 77.126 63.861 C 77.061 63.86 76.997 63.838 76.946 63.799 C 76.895 63.759 76.858 63.704 76.841 63.642 C 76.71 63.318 76.604 62.984 76.525 62.644 C 75.733 63.092 75.104 63.774 74.728 64.596 C 74.371 63.755 74.324 62.816 74.596 61.945 C 74.868 61.073 75.441 60.324 76.215 59.827 C 76.225 57.122 77.238 54.515 79.061 52.498 L 79.09 52.473 C 79.143 52.428 79.211 52.402 79.281 52.401 C 79.322 52.402 79.362 52.411 79.399 52.427 C 79.437 52.444 79.47 52.468 79.498 52.498 C 81.343 54.518 82.35 57.15 82.319 59.871 C 83.108 60.354 83.692 61.103 83.964 61.979 C 84.237 62.855 84.178 63.799 83.799 64.636 C 83.425 63.814 82.796 63.13 82.003 62.685 C 81.954 63.015 81.865 63.337 81.737 63.645 C 81.693 63.776 81.604 63.861 81.516 63.861 L 80.081 63.861 C 80.083 63.876 80.084 63.892 80.085 63.908 L 80.086 63.912 L 80.086 63.919 C 80.086 63.933 80.086 63.947 80.086 63.96 C 80.106 73.496 85.897 75.661 86.385 75.826 L 86.552 75.826 C 86.595 75.075 86.734 74.039 86.869 73.028 C 86.962 72.332 87.054 71.648 87.111 71.079 L 87.894 71.079 C 88.144 67.571 88.402 64.073 88.659 60.574 L 88.66 60.573 L 88.66 60.572 C 88.989 56.097 89.319 51.622 89.633 47.127 L 69.115 47.127 C 69.056 47.138 69.06 47.235 69.065 47.333 Z M 79.281 52.401 L 79.28 52.401 L 79.283 52.401 L 79.281 52.401 Z" fill="#8047F8"/>
</svg>